<?xml version="1.0" encoding="UTF-8" standalone="no"?>
<!-- Created with Inkscape (http://www.inkscape.org/) -->

<svg
   width="200"
   height="200"
   viewBox="0 0 52.916666 52.916669"
   version="1.1"
   id="svg5"
   sodipodi:docname="strength-logo-3.svg"
   inkscape:version="1.1.1 (3bf5ae0d25, 2021-09-20)"
   xmlns:inkscape="http://www.inkscape.org/namespaces/inkscape"
   xmlns:sodipodi="http://sodipodi.sourceforge.net/DTD/sodipodi-0.dtd"
   xmlns="http://www.w3.org/2000/svg"
   xmlns:svg="http://www.w3.org/2000/svg">
  <sodipodi:namedview
     id="namedview7"
     pagecolor="#505050"
     bordercolor="#eeeeee"
     borderopacity="1"
     inkscape:pageshadow="0"
     inkscape:pageopacity="0"
     inkscape:pagecheckerboard="true"
     inkscape:document-units="px"
     showgrid="false"
     showborder="true"
     inkscape:showpageshadow="false"
     inkscape:object-paths="true"
     inkscape:zoom="1"
     inkscape:cx="86.5"
     inkscape:cy="285.5"
     inkscape:window-width="960"
     inkscape:window-height="1057"
     inkscape:window-x="952"
     inkscape:window-y="-8"
     inkscape:window-maximized="0"
     inkscape:current-layer="path3475"
     showguides="true"
     inkscape:snap-nodes="true"
     inkscape:snap-others="false"
     inkscape:object-nodes="true"
     inkscape:snap-intersection-paths="true"
     inkscape:snap-smooth-nodes="true"
     units="px"
     width="200px"
     inkscape:snap-midpoints="true"
     fit-margin-top="0"
     fit-margin-left="0"
     fit-margin-right="0"
     fit-margin-bottom="0"
     borderlayer="true" />
  <defs
     id="defs2" />
  <g
     inkscape:label="Layer 1"
     id="layer1"
     style="display:inline"
     inkscape:groupmode="layer">
    <g
       id="path3475"
       style="opacity:1"
       transform="scale(0.26458333)"
       inkscape:groupmode="layer">
      <circle
         style="opacity:1;fill:none;fill-opacity:1;stroke-width:5.29031;stroke-linecap:round;stroke-linejoin:round"
         id="circle8721"
         cx="99.974419"
         cy="99.974419"
         r="99.974419" />
      <path
         id="path8413"
         style="opacity:1;fill:#ffffff;fill-opacity:1;stroke-width:5.29031;stroke-linecap:round;stroke-linejoin:round"
         d="M 0.64785669,90.914336 A 99.974426,99.974426 0 0 0 0,99.974524 99.974426,99.974426 0 0 0 0.44378699,106.17927 H 18.924235 c -0.152931,-2.72701 -0.258829,-5.49029 -0.258833,-8.320882 4e-6,-2.352297 0.06848,-4.661889 0.174622,-6.944052 z" />
      <path
         id="path3739"
         style="color:#000000;opacity:1;fill:#ffffff;fill-opacity:1;stroke-width:5.7746;stroke-linecap:round;stroke-linejoin:round;-inkscape-stroke:none"
         d="m 45.083615,36.578583 c -4.217021,-2e-6 -8.071955,2.149313 -11.249567,5.484463 -3.177615,3.335148 -5.842943,7.906382 -8.06726,13.425985 -4.448645,11.039203 -7.101531,25.930414 -7.101548,42.36948 1.7e-5,16.439049 2.652903,31.329609 7.101548,42.368829 2.224317,5.51959 4.889645,10.09148 8.06726,13.42663 3.177612,3.33513 7.032546,5.48447 11.249567,5.48447 h 20.500314 c 3.164073,0 6.124556,-1.21014 8.747794,-3.22315 -0.872964,-0.66989 -1.70836,-1.42857 -2.501778,-2.26132 -1.95421,-2.0511 -3.713227,-4.57364 -5.296506,-7.49303 a 19.48918,48.362039 0 0 1 -0.94951,0.0596 19.48918,48.362039 0 0 1 -19.489233,-48.362074 19.48918,48.362039 0 0 1 19.489233,-48.362079 19.48918,48.362039 0 0 1 0.94951,0.05964 c 1.583344,-2.919388 3.342197,-5.441815 5.296506,-7.493018 0.793418,-0.832747 1.628814,-1.591429 2.501778,-2.261321 -2.623238,-2.012991 -5.583721,-3.223122 -8.747794,-3.223122 z m 0,5.774826 H 58.459049 A 23.531379,58.392688 0 0 0 48.48111,57.869608 H 31.041909 c 0.0282,-0.07073 0.05268,-0.151336 0.08103,-0.221661 2.034011,-5.047351 4.438664,-9.027012 6.891552,-11.6015 2.452877,-2.574489 4.788167,-3.693038 7.069136,-3.693038 z M 28.295136,66.242785 h 17.54355 a 23.531379,58.392688 0 0 0 -1.326073,5.77418 H 26.952861 c 0.40845,-1.993214 0.848485,-3.934362 1.342275,-5.77418 z M 24.958569,85.875902 H 42.588965 A 23.531379,58.392688 0 0 0 42.052319,97.858511 23.531379,58.392688 0 0 0 58.427938,153.36361 H 45.083615 c -2.280967,0 -4.616258,-1.11855 -7.069138,-3.69304 -2.452887,-2.57448 -4.857537,-6.55414 -6.891549,-11.60152 -4.068031,-10.0947 -6.682843,-24.4003 -6.682861,-40.210539 6e-6,-4.114682 0.184754,-8.119465 0.518502,-11.982609 z" />
      <path
         id="path3759"
         style="color:#000000;opacity:1;fill:#ffffff;fill-opacity:1;stroke-width:5.7746;stroke-linecap:round;stroke-linejoin:round;-inkscape-stroke:none"
         d="m 83.079521,36.578583 c -4.217023,-2e-6 -8.071959,2.149313 -11.249576,5.484463 -3.17761,3.335148 -5.842935,7.906382 -8.06726,13.425985 -4.448646,11.039203 -7.101528,25.930414 -7.101545,42.36948 1.7e-5,16.439049 2.652899,31.329609 7.101545,42.368829 2.224325,5.51959 4.88965,10.09148 8.06726,13.42663 3.177617,3.33513 7.032553,5.48447 11.249576,5.48447 h 20.500309 c 4.217,0 8.07195,-2.14934 11.24957,-5.48447 3.17761,-3.33515 5.84294,-7.90704 8.06726,-13.42663 0.4131,-1.02511 0.79359,-2.11661 1.17504,-3.2063 -1.78557,-2.9032 -3.49807,-6.05798 -5.11826,-9.44649 a 19.48918,48.362039 0 0 1 -15.37361,18.64603 19.48918,48.362039 0 0 1 -19.489232,-48.362069 19.48918,48.362039 0 0 1 19.489232,-48.362076 19.48918,48.362039 0 0 1 4.88301,1.542547 c 0.59397,-1.740645 1.28657,-3.356653 2.08955,-4.828559 1.0023,-1.837256 2.2135,-3.458842 3.60751,-4.800691 -3.04516,-2.951511 -6.65164,-4.831149 -10.58007,-4.831149 z m 0,5.774826 h 13.37543 A 23.531379,58.392688 0 0 0 86.477007,57.869608 H 69.037809 c 0.0282,-0.07073 0.05267,-0.151336 0.08103,-0.221661 2.034019,-5.047351 4.438672,-9.027012 6.891553,-11.6015 2.452885,-2.574489 4.788172,-3.693038 7.069147,-3.693038 z M 66.291037,66.242785 h 17.543549 a 23.531379,58.392688 0 0 0 -1.326072,5.77418 H 64.948765 c 0.408444,-1.993214 0.848482,-3.934362 1.342272,-5.77418 z m 40.082873,16.78589 a 6.4963939,16.12068 0 0 0 -4.09357,14.829836 6.4963939,16.12068 0 0 0 6.49618,16.120899 6.4963939,16.12068 0 0 0 3.68009,-2.84269 c -0.74691,-2.31966 -1.46402,-4.67713 -2.11484,-7.10608 -1.94367,-7.253826 -3.23882,-14.318983 -3.96786,-21.001965 z M 62.95447,85.875902 H 80.584868 A 23.531379,58.392688 0 0 0 80.048216,97.858511 23.531379,58.392688 0 0 0 96.42384,153.36361 H 83.079521 c -2.280972,0 -4.616262,-1.11855 -7.069147,-3.69304 -2.452878,-2.57448 -4.857533,-6.55414 -6.891551,-11.60152 -4.068027,-10.0947 -6.682838,-24.4003 -6.682857,-40.210539 6e-6,-4.114682 0.184735,-8.119465 0.518504,-11.982609 z" />
      <path
         id="path4487"
         style="color:#000000;opacity:1;fill:#ffffff;fill-opacity:1;stroke-width:5.77463;stroke-linecap:round;stroke-linejoin:round;-inkscape-stroke:none"
         d="m 119.99936,38.001175 c -4.07331,1.091442 -7.24062,4.165263 -9.44672,8.209197 -2.20616,4.043948 -3.59754,9.149271 -4.31749,15.056503 -1.4399,11.814472 -0.14825,26.884929 4.10647,42.763885 4.25477,15.87893 10.6712,29.57554 17.82542,39.0872 3.57711,4.75585 7.3349,8.48212 11.26745,10.88119 3.93252,2.39908 8.2124,3.47745 12.28572,2.38599 l 19.80182,-5.30586 c 4.07331,-1.09145 7.24061,-4.16528 9.44677,-8.20923 2.20608,-4.04392 3.59734,-9.14988 4.31725,-15.05711 1.43994,-11.81447 0.14841,-26.8843 -4.10627,-42.763257 -4.25474,-15.878944 -10.67139,-29.576158 -17.8256,-39.087831 -3.57709,-4.755846 -7.33476,-8.481482 -11.26725,-10.880576 -3.93256,-2.399084 -8.21243,-3.477437 -12.28575,-2.385983 z m 1.49466,5.578069 12.91971,-3.461829 a 58.392804,23.531385 75.000043 0 0 -5.6221,17.570023 l -16.84495,4.513601 c 0.009,-0.07561 0.0114,-0.159834 0.0209,-0.235076 0.65839,-5.401824 1.95108,-9.868257 3.65407,-12.989888 1.70297,-3.121621 3.6692,-4.806479 5.87241,-5.396831 z m 21.65054,1.593757 a 48.36214,19.489183 75.000043 0 1 31.34157,41.670248 48.36214,19.489183 75.000043 0 1 -6.30751,51.758311 48.36214,19.489183 75.000043 0 1 -31.34218,-41.67009 48.36214,19.489183 75.000043 0 1 6.30812,-51.758469 z m -31.68394,25.826841 16.94576,-4.540613 a 58.392804,23.531385 75.000043 0 0 0.21358,5.920657 l -16.9614,4.544803 c -0.12135,-2.03102 -0.1987,-4.019909 -0.19794,-5.924847 z m 45.04817,3.970797 a 16.120713,6.4963943 75.000043 0 0 -2.10241,17.252973 16.120713,6.4963943 75.000043 0 0 10.44722,13.890298 16.120713,6.4963943 75.000043 0 0 2.10244,-17.252984 16.120713,6.4963943 75.000043 0 0 -10.44725,-13.890287 z m -43.18962,15.856952 17.02968,-4.5631 a 58.392804,23.531385 75.000043 0 0 2.58297,11.713227 58.392804,23.531385 75.000043 0 0 30.18338,49.375592 l -12.88963,3.45378 c -2.20323,0.59035 -4.74847,0.11435 -7.78408,-1.73757 -3.03563,-1.85193 -6.38836,-5.07362 -9.65941,-9.42256 -6.54212,-8.69788 -12.7704,-21.8393 -16.8624,-37.11084 -1.06496,-3.974478 -1.92302,-7.890632 -2.60051,-11.708529 z" />
      <path
         style="opacity:1;fill:#ffffff;fill-opacity:1;stroke-width:6.24222;stroke-linecap:round;stroke-linejoin:round"
         d="m 102.96216,90.914461 a 6.4963939,16.120676 0 0 0 -0.68182,6.94405 6.4963939,16.120676 0 0 0 0.9508,8.320679 h 7.72115 0.0117 c -0.20434,-0.71975 -0.42684,-1.41941 -0.6222,-2.14855 -0.56338,-2.10262 -1.05696,-4.183069 -1.51338,-6.249256 -0.0992,-0.451405 -0.185,-0.896065 -0.27935,-1.345523 -0.33674,-1.59757 -0.64606,-3.181465 -0.92099,-4.750777 -0.0447,-0.254635 -0.10559,-0.516732 -0.14908,-0.770623 z"
         id="path8764" />
      <path
         style="opacity:1;fill:#ffffff;fill-opacity:1;stroke-width:6.24222;stroke-linecap:round;stroke-linejoin:round"
         d="m 46.298209,90.914461 a 19.48918,48.362039 0 0 0 -0.203513,6.94405 19.48918,48.362039 0 0 0 0.324712,8.320679 h 10.500983 c -0.152932,-2.72702 -0.259248,-5.4901 -0.259251,-8.320679 3e-6,-2.352303 0.06888,-4.661888 0.174994,-6.94405 z"
         id="path8762" />
    </g>
  </g>
</svg>
