<?xml version="1.0" encoding="UTF-8" standalone="no"?>
<!-- Created with Inkscape (http://www.inkscape.org/) -->

<svg
   width="210mm"
   height="297mm"
   viewBox="0 0 210 297"
   version="1.1"
   id="svg5"
   sodipodi:docname="strength-logo.svg"
   inkscape:version="1.1.1 (3bf5ae0d25, 2021-09-20)"
   xmlns:inkscape="http://www.inkscape.org/namespaces/inkscape"
   xmlns:sodipodi="http://sodipodi.sourceforge.net/DTD/sodipodi-0.dtd"
   xmlns="http://www.w3.org/2000/svg"
   xmlns:svg="http://www.w3.org/2000/svg">
  <sodipodi:namedview
     id="namedview7"
     pagecolor="#505050"
     bordercolor="#eeeeee"
     borderopacity="1"
     inkscape:pageshadow="0"
     inkscape:pageopacity="0"
     inkscape:pagecheckerboard="0"
     inkscape:document-units="mm"
     showgrid="false"
     showborder="false"
     inkscape:showpageshadow="false"
     inkscape:object-paths="false"
     inkscape:zoom="0.5"
     inkscape:cx="851"
     inkscape:cy="453"
     inkscape:window-width="1122"
     inkscape:window-height="1057"
     inkscape:window-x="792"
     inkscape:window-y="0"
     inkscape:window-maximized="0"
     inkscape:current-layer="path3475"
     showguides="false"
     inkscape:snap-nodes="true"
     inkscape:snap-others="false"
     inkscape:object-nodes="false"
     inkscape:snap-intersection-paths="false"
     inkscape:snap-smooth-nodes="false" />
  <defs
     id="defs2" />
  <g
     inkscape:label="Layer 1"
     id="layer1"
     style="display:inline"
     inkscape:groupmode="layer">
    <g
       id="path3475"
       style="opacity:0.5"
       transform="scale(0.26458333)"
       inkscape:groupmode="layer">
      <path
         id="path3538"
         style="color:#000000;fill:#000000;fill-opacity:0.923387;stroke-width:17.4016;stroke-linecap:round;stroke-linejoin:round;-inkscape-stroke:none"
         d="m 682.61133,224.25977 c -12.70792,-1e-5 -24.3247,6.47692 -33.90039,16.52734 -9.57568,10.05041 -17.6076,23.82575 -24.31055,40.45898 -13.40592,33.26644 -21.40034,78.14086 -21.40039,127.67969 5e-5,49.53883 7.99447,94.4113 21.40039,127.67774 6.70295,16.63322 14.73487,30.41052 24.31055,40.46093 9.57569,10.05041 21.19247,16.52736 33.90039,16.52735 h 61.77734 c 9.53489,0 18.45625,-3.64673 26.36133,-9.71289 -2.63066,-2.01871 -5.14811,-4.30498 -7.53906,-6.81446 -5.88898,-6.18093 -11.18975,-13.78258 -15.96094,-22.58007 a 58.730312,145.73819 0 0 1 -2.86133,0.17968 58.730312,145.73819 0 0 1 -58.73047,-145.73828 58.730312,145.73819 0 0 1 58.73047,-145.73828 58.730312,145.73819 0 0 1 2.86133,0.17969 c 4.77138,-8.79752 10.07165,-16.39882 15.96094,-22.58008 2.39095,-2.50948 4.9084,-4.79574 7.53906,-6.81445 -7.90508,-6.06617 -16.82644,-9.71289 -26.36133,-9.71289 z m 0,17.40234 h 40.30664 a 70.911412,175.96537 0 0 0 -30.06836,46.75781 h -52.55273 c 0.085,-0.21311 0.15875,-0.45608 0.24414,-0.66797 6.12947,-15.21012 13.37585,-27.20275 20.76757,-34.96093 7.39172,-7.75818 14.42908,-11.12891 21.30274,-11.12891 z m -50.5918,71.99023 h 52.86719 a 70.911412,175.96537 0 0 0 -3.9961,17.40039 h -52.91601 c 1.23085,-6.00652 2.55689,-11.85612 4.04492,-17.40039 z m -10.05469,59.16407 h 53.12891 a 70.911412,175.96537 0 0 0 -1.61719,36.10937 70.911412,175.96537 0 0 0 49.34766,167.26367 h -40.21289 c -6.87366,0 -13.91102,-3.37072 -21.30274,-11.1289 -7.39172,-7.75818 -14.6381,-19.75081 -20.76757,-34.96094 -12.25893,-30.42025 -20.13862,-73.52994 -20.13868,-121.17383 2e-5,-12.3995 0.55673,-24.46786 1.5625,-36.10937 z" />
      <path
         id="path3739"
         style="color:#000000;fill:#ff0000;fill-opacity:0.923387;stroke-width:17.4016;stroke-linecap:round;stroke-linejoin:round;-inkscape-stroke:none"
         d="m 797.11133,224.25977 c -12.70792,-1e-5 -24.3247,6.47692 -33.90039,16.52734 -9.57568,10.05041 -17.6076,23.82575 -24.31055,40.45898 -13.40592,33.26644 -21.40034,78.14086 -21.40039,127.67969 5e-5,49.53883 7.99447,94.4113 21.40039,127.67774 6.70295,16.63322 14.73487,30.41052 24.31055,40.46093 9.57569,10.05041 21.19247,16.52736 33.90039,16.52735 h 61.77734 c 9.53489,0 18.45625,-3.64673 26.36133,-9.71289 -2.63066,-2.01871 -5.14811,-4.30498 -7.53906,-6.81446 -5.88898,-6.18093 -11.18975,-13.78258 -15.96094,-22.58007 a 58.730312,145.73819 0 0 1 -2.86133,0.17968 58.730312,145.73819 0 0 1 -58.73047,-145.73828 58.730312,145.73819 0 0 1 58.73047,-145.73828 58.730312,145.73819 0 0 1 2.86133,0.17969 c 4.77138,-8.79752 10.07165,-16.39882 15.96094,-22.58008 2.39095,-2.50948 4.9084,-4.79574 7.53906,-6.81445 -7.90508,-6.06617 -16.82644,-9.71289 -26.36133,-9.71289 z m 0,17.40234 h 40.30664 a 70.911412,175.96537 0 0 0 -30.06836,46.75781 h -52.55273 c 0.085,-0.21311 0.15875,-0.45608 0.24414,-0.66797 6.12947,-15.21012 13.37585,-27.20275 20.76757,-34.96093 7.39172,-7.75818 14.42908,-11.12891 21.30274,-11.12891 z m -50.5918,71.99023 h 52.86719 a 70.911412,175.96537 0 0 0 -3.9961,17.40039 h -52.91601 c 1.23085,-6.00652 2.55689,-11.85612 4.04492,-17.40039 z m -10.05469,59.16407 h 53.12891 a 70.911412,175.96537 0 0 0 -1.61719,36.10937 70.911412,175.96537 0 0 0 49.34766,167.26367 h -40.21289 c -6.87366,0 -13.91102,-3.37072 -21.30274,-11.1289 -7.39172,-7.75818 -14.6381,-19.75081 -20.76757,-34.96094 -12.25893,-30.42025 -20.13862,-73.52994 -20.13868,-121.17383 2e-5,-12.3995 0.55673,-24.46786 1.5625,-36.10937 z" />
      <path
         id="path3759"
         style="color:#000000;fill:#00ff00;fill-opacity:0.923387;stroke-width:17.4016;stroke-linecap:round;stroke-linejoin:round;-inkscape-stroke:none"
         d="m 911.61134,224.25977 c -12.70792,-1e-5 -24.3247,6.47692 -33.90039,16.52734 -9.57568,10.05041 -17.6076,23.82575 -24.31055,40.45898 -13.40592,33.26644 -21.40034,78.14086 -21.40039,127.67969 5e-5,49.53883 7.99447,94.4113 21.40039,127.67774 6.70295,16.63322 14.73487,30.41052 24.31055,40.46093 9.57569,10.05041 21.19247,16.52736 33.90039,16.52735 h 61.77734 c 12.70792,0 24.3247,-6.47694 33.90042,-16.52735 9.5756,-10.05041 17.6076,-23.82771 24.3105,-40.46093 C 1045.0055,503.33708 1053,458.46461 1053,408.92578 c 0,-49.53883 -7.9945,-94.41325 -21.4004,-127.67969 -6.7029,-16.63323 -14.7349,-30.40857 -24.3105,-40.45898 -9.57572,-10.05042 -21.1925,-16.52734 -33.90042,-16.52734 z m 0,17.40234 h 40.30664 a 70.911413,175.96537 0 0 0 -30.06836,46.75781 h -52.55273 c 0.085,-0.21311 0.15875,-0.45608 0.24414,-0.66797 6.12947,-15.21012 13.37585,-27.20275 20.76757,-34.96093 7.39172,-7.75818 14.42908,-11.12891 21.30274,-11.12891 z m 61.77734,21.52539 A 58.730313,145.73819 0 0 1 1032.1172,408.92578 58.730313,145.73819 0 0 1 973.38868,554.66406 58.730313,145.73819 0 0 1 914.65821,408.92578 58.730313,145.73819 0 0 1 973.38868,263.1875 Z m -112.36914,50.46484 h 52.86719 a 70.911413,175.96537 0 0 0 -3.9961,17.40039 h -52.91601 c 1.23085,-6.00652 2.55689,-11.85612 4.04492,-17.40039 z m 128.0293,46.69336 a 19.576772,48.579395 0 0 0 -19.57617,48.58008 19.576772,48.579395 0 0 0 19.57617,48.58008 19.576772,48.579395 0 0 0 19.57616,-48.58008 19.576772,48.579395 0 0 0 -19.57616,-48.58008 z m -138.08399,12.47071 h 53.12891 a 70.911413,175.96537 0 0 0 -1.61719,36.10937 70.911413,175.96537 0 0 0 49.34766,167.26367 h -40.21289 c -6.87366,0 -13.91102,-3.37072 -21.30274,-11.1289 -7.39172,-7.75818 -14.6381,-19.75081 -20.76757,-34.96094 -12.25893,-30.42025 -20.13862,-73.52994 -20.13868,-121.17383 2e-5,-12.3995 0.55673,-24.46786 1.5625,-36.10937 z" />
    </g>
  </g>
</svg>
