<?xml version="1.0" encoding="UTF-8" standalone="no"?>
<!-- Created with Inkscape (http://www.inkscape.org/) -->

<svg
   width="210mm"
   height="297mm"
   viewBox="0 0 210 297"
   version="1.1"
   id="svg5"
   sodipodi:docname="strength-logo-2.svg"
   inkscape:version="1.1.1 (3bf5ae0d25, 2021-09-20)"
   xmlns:inkscape="http://www.inkscape.org/namespaces/inkscape"
   xmlns:sodipodi="http://sodipodi.sourceforge.net/DTD/sodipodi-0.dtd"
   xmlns="http://www.w3.org/2000/svg"
   xmlns:svg="http://www.w3.org/2000/svg">
  <sodipodi:namedview
     id="namedview7"
     pagecolor="#505050"
     bordercolor="#eeeeee"
     borderopacity="1"
     inkscape:pageshadow="0"
     inkscape:pageopacity="0"
     inkscape:pagecheckerboard="0"
     inkscape:document-units="mm"
     showgrid="false"
     showborder="false"
     inkscape:showpageshadow="false"
     inkscape:object-paths="false"
     inkscape:zoom="0.5"
     inkscape:cx="851"
     inkscape:cy="453"
     inkscape:window-width="1122"
     inkscape:window-height="1057"
     inkscape:window-x="792"
     inkscape:window-y="0"
     inkscape:window-maximized="0"
     inkscape:current-layer="path3475"
     showguides="false"
     inkscape:snap-nodes="true"
     inkscape:snap-others="false"
     inkscape:object-nodes="false"
     inkscape:snap-intersection-paths="false"
     inkscape:snap-smooth-nodes="false" />
  <defs
     id="defs2" />
  <g
     inkscape:label="Layer 1"
     id="layer1"
     style="display:inline"
     inkscape:groupmode="layer">
    <g
       id="path3475"
       style="opacity:0.5"
       transform="scale(0.26458333)"
       inkscape:groupmode="layer">
      <path
         id="path3538"
         style="color:#000000;fill:#000000;fill-opacity:0.923387;stroke-width:17.4016;stroke-linecap:round;stroke-linejoin:round;-inkscape-stroke:none"
         d="m 682.61133,224.25977 c -12.70792,-1e-5 -24.3247,6.47692 -33.90039,16.52734 -9.57568,10.05041 -17.6076,23.82575 -24.31055,40.45898 -13.40592,33.26644 -21.40034,78.14086 -21.40039,127.67969 5e-5,49.53883 7.99447,94.4113 21.40039,127.67774 6.70295,16.63322 14.73487,30.41052 24.31055,40.46093 9.57569,10.05041 21.19247,16.52736 33.90039,16.52735 h 33.22265 v -17.40235 h -33.22265 c -6.87366,0 -13.91102,-3.37072 -21.30274,-11.1289 -7.39172,-7.75818 -14.6381,-19.75081 -20.76757,-34.96094 -12.25893,-30.42025 -20.13862,-73.52994 -20.13868,-121.17383 2e-5,-12.3995 0.55673,-24.46786 1.5625,-36.10937 h 53.12891 a 70.911411,175.96537 0 0 0 -1.61719,36.10937 70.911411,175.96537 0 0 0 42.35742,160.4961 v -15.38477 c 0,-4.96989 1.01858,-9.76446 2.82618,-14.34375 A 58.730311,145.73819 0 0 1 685.6582,408.92578 58.730311,145.73819 0 0 1 744.38867,263.1875 58.730311,145.73819 0 0 1 747.25,263.36719 c 4.77138,-8.79752 10.07165,-16.39882 15.96094,-22.58008 2.39095,-2.50948 4.9084,-4.79574 7.53906,-6.81445 -7.90508,-6.06617 -16.82644,-9.71289 -26.36133,-9.71289 z m 0,17.40234 h 40.30664 a 70.911411,175.96537 0 0 0 -30.06836,46.75781 h -52.55273 c 0.085,-0.21311 0.15875,-0.45608 0.24414,-0.66797 6.12947,-15.21012 13.37585,-27.20275 20.76757,-34.96093 7.39172,-7.75818 14.42908,-11.12891 21.30274,-11.12891 z m -50.5918,71.99023 h 52.86719 a 70.911411,175.96537 0 0 0 -3.9961,17.40039 h -52.91601 c 1.23085,-6.00652 2.55689,-11.85612 4.04492,-17.40039 z" />
      <path
         id="path3739"
         style="color:#000000;fill:#ff0000;fill-opacity:0.923387;stroke-width:17.4016;stroke-linecap:round;stroke-linejoin:round;-inkscape-stroke:none"
         d="m 797.11133,224.25977 c -12.70792,-1e-5 -24.3247,6.47692 -33.90039,16.52734 -9.57568,10.05041 -17.6076,23.82575 -24.31055,40.45898 -13.40592,33.26644 -21.40034,78.14086 -21.40039,127.67969 4e-5,41.59168 5.69181,79.795 15.43359,110.70117 4.29163,-4.01121 9.25888,-7.74211 14.80274,-11.22265 -7.96722,-27.81604 -12.83394,-62.21073 -12.83399,-99.47852 2e-5,-12.3995 0.55673,-24.46786 1.5625,-36.10937 h 53.12891 a 70.911411,175.96537 0 0 0 -1.61719,36.10937 70.911411,175.96537 0 0 0 7.7793,79.13281 c 4.22366,-1.22297 8.57949,-2.35833 13.04492,-3.42968 a 58.730311,145.73819 0 0 1 -8.64258,-75.70313 58.730311,145.73819 0 0 1 58.73047,-145.73828 58.730311,145.73819 0 0 1 2.86133,0.17969 c 4.77138,-8.79752 10.07165,-16.39882 15.96094,-22.58008 2.39095,-2.50948 4.9084,-4.79574 7.53906,-6.81445 -7.90508,-6.06617 -16.82644,-9.71289 -26.36133,-9.71289 z m 0,17.40234 h 40.30664 a 70.911411,175.96537 0 0 0 -30.06836,46.75781 h -52.55273 c 0.085,-0.21311 0.15875,-0.45608 0.24414,-0.66797 6.12947,-15.21012 13.37585,-27.20275 20.76757,-34.96093 7.39172,-7.75818 14.42908,-11.12891 21.30274,-11.12891 z m -50.5918,71.99023 h 52.86719 a 70.911411,175.96537 0 0 0 -3.9961,17.40039 h -52.91601 c 1.23085,-6.00652 2.55689,-11.85612 4.04492,-17.40039 z" />
      <path
         id="path3759"
         style="color:#000000;fill:#00ff00;fill-opacity:0.923387;stroke-width:17.4016;stroke-linecap:round;stroke-linejoin:round;-inkscape-stroke:none"
         d="m 911.61133,224.25977 c -12.70792,-1e-5 -24.3247,6.47692 -33.90039,16.52734 -9.57568,10.05041 -17.6076,23.82575 -24.31055,40.45898 -13.40592,33.26644 -21.40034,78.14086 -21.40039,127.67969 3e-5,24.83994 2.0146,48.50253 5.70898,70.1211 5.65851,-0.85101 11.43547,-1.58593 17.33594,-2.20508 -3.59832,-20.77026 -5.64255,-43.74775 -5.64258,-67.91602 2e-5,-12.3995 0.55673,-24.46786 1.5625,-36.10937 h 53.12891 a 70.911412,175.96537 0 0 0 -1.61719,36.10937 70.911412,175.96537 0 0 0 5.20117,65.64453 c 4.5327,0.0717 9.04845,0.16326 13.49024,0.36719 a 58.730312,145.73819 0 0 1 -6.50977,-66.01172 58.730312,145.73819 0 0 1 58.73047,-145.73828 58.730312,145.73819 0 0 1 58.72853,145.73828 58.730312,145.73819 0 0 1 -10.8535,84.36524 c 2.3111,0.84231 4.7034,1.64428 6.914,2.53515 5.0176,2.02198 9.739,4.18141 14.2129,6.45117 6.7425,-27.42772 10.6094,-59.22715 10.6094,-93.35156 0,-49.53883 -7.9945,-94.41325 -21.4004,-127.67969 -6.7029,-16.63323 -14.7349,-30.40857 -24.3105,-40.45898 -9.57576,-10.05042 -21.19251,-16.52734 -33.90043,-16.52734 z m 0,17.40234 h 40.30664 a 70.911412,175.96537 0 0 0 -30.06836,46.75781 h -52.55273 c 0.085,-0.21311 0.15875,-0.45608 0.24414,-0.66797 6.12947,-15.21012 13.37585,-27.20275 20.76757,-34.96093 7.39172,-7.75818 14.42908,-11.12891 21.30274,-11.12891 z m -50.5918,71.99023 h 52.86719 a 70.911412,175.96537 0 0 0 -3.9961,17.40039 h -52.91601 c 1.23085,-6.00652 2.55689,-11.85612 4.04492,-17.40039 z m 128.0293,46.69336 a 19.576772,48.579394 0 0 0 -19.57617,48.58008 19.576772,48.579394 0 0 0 19.57617,48.58008 19.576772,48.579394 0 0 0 19.57617,-48.58008 19.576772,48.579394 0 0 0 -19.57617,-48.58008 z" />
      <path
         id="path3948"
         style="color:#000000;fill:#ff00ff;fill-opacity:0.923387;stroke-width:17.4016;stroke-linecap:round;stroke-linejoin:round;-inkscape-stroke:none"
         d="m 715.83399,615.81445 c -10e-6,12.70792 6.47692,24.3247 16.52734,33.90039 10.05041,9.57568 23.82575,17.6076 40.45898,24.31055 33.26644,13.40592 78.14086,21.40034 127.67969,21.40039 49.53883,-5e-5 94.4113,-7.99447 127.6777,-21.40039 16.6333,-6.70295 30.4106,-14.73487 40.461,-24.31055 10.0504,-9.57569 16.5273,-21.19247 16.5273,-33.90039 v -61.77734 c 0,-12.70792 -6.4769,-24.3247 -16.5273,-33.90042 -10.0504,-9.5756 -23.8277,-17.6076 -40.461,-24.3105 -33.2664,-13.4059 -78.13887,-21.4004 -127.6777,-21.4004 -49.53883,0 -94.41325,7.9945 -127.67969,21.4004 -16.63323,6.7029 -30.40857,14.7349 -40.45898,24.3105 -10.05042,9.57572 -16.52734,21.1925 -16.52734,33.90042 z m 17.40234,0 v -40.30664 a 175.96537,70.911413 0 0 0 46.75781,30.06836 v 52.55273 c -0.21311,-0.085 -0.45608,-0.15875 -0.66797,-0.24414 -15.21012,-6.12947 -27.20275,-13.37585 -34.96093,-20.76757 -7.75818,-7.39172 -11.12891,-14.42908 -11.12891,-21.30274 z m 21.52539,-61.77734 A 145.73819,58.730313 0 0 1 900.5,495.30859 145.73819,58.730313 0 0 1 1046.2383,554.03711 145.73819,58.730313 0 0 1 900.5,612.76758 145.73819,58.730313 0 0 1 754.76172,554.03711 Z m 50.46484,112.36914 v -52.86719 a 175.96537,70.911413 0 0 0 17.40039,3.9961 v 52.91601 c -6.00652,-1.23085 -11.85612,-2.55689 -17.40039,-4.04492 z m 46.69336,-128.0293 A 48.579395,19.576772 0 0 0 900.5,557.95312 48.579395,19.576772 0 0 0 949.08008,538.37695 48.579395,19.576772 0 0 0 900.5,518.80079 48.579395,19.576772 0 0 0 851.91992,538.37695 Z m 12.47071,138.08399 v -53.12891 a 175.96537,70.911413 0 0 0 36.10937,1.61719 175.96537,70.911413 0 0 0 167.2637,-49.34766 v 40.21289 c 0,6.87366 -3.3707,13.91102 -11.1289,21.30274 -7.7582,7.39172 -19.7508,14.6381 -34.961,20.76757 -30.4202,12.25893 -73.52991,20.13862 -121.1738,20.13868 -12.3995,-2e-5 -24.46786,-0.55673 -36.10937,-1.5625 z" />
    </g>
  </g>
</svg>
